<?xml version="1.0" encoding="utf-8"?>
<!-- Generator: Adobe Illustrator 19.0.0, SVG Export Plug-In . SVG Version: 6.00 Build 0)  -->
<svg version="1.1" id="Layer_1" xmlns="http://www.w3.org/2000/svg" xmlns:xlink="http://www.w3.org/1999/xlink" x="0px" y="0px"
	 width="50px" height="50px" viewBox="0 0 50 50" style="enable-background:new 0 0 50 50;" xml:space="preserve">
<style type="text/css">
	.st0{opacity:0.1;}
	.st1{fill:none;stroke:#000000;stroke-width:1.3;stroke-miterlimit:10;}
	.st2{fill:none;stroke:#346190;stroke-width:2;stroke-linecap:round;stroke-miterlimit:10;}
	.st3{fill:#346190;}
</style>
<path id="XMLID_9_" class="st0" d="M47.848,20.763l-0.943-3.518c-0.066-0.248-0.241-0.436-0.432-0.466l-3.869-0.602
	c-0.607-1.21-1.336-2.347-2.169-3.399l1.091-3.765c0.054-0.186-0.043-0.424-0.24-0.589l-2.79-2.341
	c-0.197-0.165-0.448-0.219-0.621-0.134l-3.51,1.724c-1.67-0.904-3.484-1.575-5.401-1.966l-1.58-3.576
	c-0.078-0.177-0.305-0.297-0.562-0.297h-3.642c-0.257,0-0.484,0.12-0.562,0.297l-1.58,3.576c-1.339,0.274-2.628,0.686-3.853,1.217
	L13.835,4.9c-0.166-0.1-0.421-0.068-0.631,0.079l-2.983,2.089c-0.21,0.147-0.327,0.376-0.29,0.566l0.759,3.847
	c-0.923,0.977-1.749,2.046-2.458,3.196l-3.905,0.262c-0.193,0.013-0.384,0.185-0.471,0.426l-1.246,3.423
	c-0.088,0.241-0.053,0.496,0.087,0.63l2.823,2.712C5.382,23.067,5.308,24.025,5.308,25c0,0.39,0.014,0.776,0.037,1.16l-3.051,2.457
	c-0.151,0.121-0.208,0.372-0.142,0.62l0.943,3.518c0.066,0.248,0.241,0.436,0.432,0.466l3.869,0.602
	c0.607,1.21,1.336,2.347,2.169,3.399l-1.091,3.765c-0.054,0.186,0.043,0.424,0.24,0.589l2.79,2.341
	c0.197,0.165,0.448,0.219,0.621,0.134l3.51-1.724c1.67,0.904,3.484,1.575,5.401,1.966l1.58,3.576
	c0.078,0.177,0.305,0.297,0.562,0.297h3.642c0.257,0,0.484-0.12,0.562-0.297l1.58-3.576c1.339-0.274,2.628-0.686,3.853-1.217
	l3.348,2.024c0.166,0.1,0.421,0.068,0.631-0.079l2.983-2.089c0.21-0.147,0.327-0.376,0.29-0.566l-0.759-3.847
	c0.923-0.977,1.749-2.046,2.459-3.196l3.905-0.262c0.193-0.013,0.384-0.185,0.471-0.427l1.246-3.422
	c0.088-0.241,0.053-0.496-0.087-0.63l-2.823-2.712c0.137-0.937,0.211-1.895,0.211-2.871c0-0.39-0.014-0.776-0.037-1.16l3.051-2.457
	C47.857,21.262,47.914,21.011,47.848,20.763z M25,40.261c-8.428,0-15.261-6.833-15.261-15.261S16.572,9.739,25,9.739
	S40.261,16.572,40.261,25S33.428,40.261,25,40.261z"/>
<path id="XMLID_31_" class="st1" d="M47.848,20.763l-0.943-3.518c-0.066-0.248-0.241-0.436-0.432-0.466l-3.869-0.602
	c-0.607-1.21-1.336-2.347-2.169-3.399l1.091-3.765c0.054-0.186-0.043-0.424-0.24-0.589l-2.79-2.341
	c-0.197-0.165-0.448-0.219-0.621-0.134l-3.51,1.724c-1.67-0.904-3.484-1.575-5.401-1.966l-1.58-3.576
	c-0.078-0.177-0.305-0.297-0.562-0.297h-3.642c-0.257,0-0.484,0.12-0.562,0.297l-1.58,3.576c-1.339,0.274-2.628,0.686-3.853,1.217
	L13.835,4.9c-0.166-0.1-0.421-0.068-0.631,0.079l-2.983,2.089c-0.21,0.147-0.327,0.376-0.29,0.566l0.759,3.847
	c-0.923,0.977-1.749,2.046-2.458,3.196l-3.905,0.262c-0.193,0.013-0.384,0.185-0.471,0.426l-1.246,3.423
	c-0.088,0.241-0.053,0.496,0.087,0.63l2.823,2.712C5.382,23.067,5.308,24.025,5.308,25c0,0.39,0.014,0.776,0.037,1.16l-3.051,2.457
	c-0.151,0.121-0.208,0.372-0.142,0.62l0.943,3.518c0.066,0.248,0.241,0.436,0.432,0.466l3.869,0.602
	c0.607,1.21,1.336,2.347,2.169,3.399l-1.091,3.765c-0.054,0.186,0.043,0.424,0.24,0.589l2.79,2.341
	c0.197,0.165,0.448,0.219,0.621,0.134l3.51-1.724c1.67,0.904,3.484,1.575,5.401,1.966l1.58,3.576
	c0.078,0.177,0.305,0.297,0.562,0.297h3.642c0.257,0,0.484-0.12,0.562-0.297l1.58-3.576c1.339-0.274,2.628-0.686,3.853-1.217
	l3.348,2.024c0.166,0.1,0.421,0.068,0.631-0.079l2.983-2.089c0.21-0.147,0.327-0.376,0.29-0.566l-0.759-3.847
	c0.923-0.977,1.749-2.046,2.459-3.196l3.905-0.262c0.193-0.013,0.384-0.185,0.471-0.427l1.246-3.422
	c0.088-0.241,0.053-0.496-0.087-0.63l-2.823-2.712c0.137-0.937,0.211-1.895,0.211-2.871c0-0.39-0.014-0.776-0.037-1.16l3.051-2.457
	C47.857,21.262,47.914,21.011,47.848,20.763z M25,40.261c-8.428,0-15.261-6.833-15.261-15.261S16.572,9.739,25,9.739
	S40.261,16.572,40.261,25S33.428,40.261,25,40.261z"/>
<path id="XMLID_19_" class="st2" d="M19.253,29.862c1.843-0.603,3.191-2.507,3.191-4.768s-1.348-4.166-3.191-4.768"/>
<path id="XMLID_5_" class="st2" d="M21.691,33.612c3.671-1.076,6.356-4.479,6.356-8.518s-2.685-7.442-6.356-8.518"/>
<path id="XMLID_18_" class="st2" d="M26.516,36.22c4.396-1.406,7.611-5.851,7.611-11.126s-3.215-9.72-7.611-11.126"/>
<circle id="XMLID_20_" class="st3" cx="16.083" cy="25.094" r="1.927"/>
<g id="XMLID_21_">
</g>
<g id="XMLID_22_">
</g>
<g id="XMLID_23_">
</g>
<g id="XMLID_24_">
</g>
<g id="XMLID_25_">
</g>
<g id="XMLID_26_">
</g>
</svg>
