<?xml version="1.0" encoding="utf-8"?>
<!-- Generator: Adobe Illustrator 19.0.0, SVG Export Plug-In . SVG Version: 6.00 Build 0)  -->
<svg version="1.1" id="Layer_1" xmlns="http://www.w3.org/2000/svg" xmlns:xlink="http://www.w3.org/1999/xlink" x="0px" y="0px"
	 width="50px" height="50px" viewBox="0 0 50 50" style="enable-background:new 0 0 50 50;" xml:space="preserve">
<style type="text/css">
	.st0{opacity:0.1;}
	.st1{fill:none;stroke:#000000;stroke-width:1.3;stroke-miterlimit:10;}
	.st2{fill:#346190;stroke:#346190;stroke-width:0.3018;stroke-miterlimit:10;}
</style>
<path id="XMLID_9_" class="st0" d="M47.848,20.763l-0.943-3.518c-0.066-0.248-0.241-0.436-0.432-0.466l-3.869-0.602
	c-0.607-1.21-1.336-2.347-2.169-3.399l1.091-3.765c0.054-0.186-0.043-0.424-0.24-0.589l-2.79-2.341
	c-0.197-0.165-0.448-0.219-0.621-0.134l-3.51,1.724c-1.67-0.904-3.484-1.575-5.401-1.966l-1.58-3.576
	c-0.078-0.177-0.305-0.297-0.562-0.297h-3.642c-0.257,0-0.484,0.12-0.562,0.297l-1.58,3.576c-1.339,0.274-2.628,0.686-3.853,1.217
	L13.835,4.9c-0.166-0.1-0.421-0.068-0.631,0.079l-2.983,2.089c-0.21,0.147-0.327,0.376-0.29,0.566l0.759,3.847
	c-0.923,0.977-1.749,2.046-2.458,3.196l-3.905,0.262c-0.193,0.013-0.384,0.185-0.471,0.426l-1.246,3.423
	c-0.088,0.241-0.053,0.496,0.087,0.63l2.823,2.712C5.382,23.067,5.308,24.025,5.308,25c0,0.39,0.014,0.776,0.037,1.16l-3.051,2.457
	c-0.151,0.121-0.208,0.372-0.142,0.62l0.943,3.518c0.066,0.248,0.241,0.436,0.432,0.466l3.869,0.602
	c0.607,1.21,1.336,2.347,2.169,3.399l-1.091,3.765c-0.054,0.186,0.043,0.424,0.24,0.589l2.79,2.341
	c0.197,0.165,0.448,0.219,0.621,0.134l3.51-1.724c1.67,0.904,3.484,1.575,5.401,1.966l1.58,3.576
	c0.078,0.177,0.305,0.297,0.562,0.297h3.642c0.257,0,0.484-0.12,0.562-0.297l1.58-3.576c1.339-0.274,2.628-0.686,3.853-1.217
	l3.348,2.024c0.166,0.1,0.421,0.068,0.631-0.079l2.983-2.089c0.21-0.147,0.327-0.376,0.29-0.566l-0.759-3.847
	c0.923-0.977,1.749-2.046,2.459-3.196l3.905-0.262c0.193-0.013,0.384-0.185,0.471-0.427l1.246-3.422
	c0.088-0.241,0.053-0.496-0.087-0.63l-2.823-2.712c0.137-0.937,0.211-1.895,0.211-2.871c0-0.39-0.014-0.776-0.037-1.16l3.051-2.457
	C47.857,21.262,47.914,21.011,47.848,20.763z M25,40.261c-8.428,0-15.261-6.833-15.261-15.261S16.572,9.739,25,9.739
	S40.261,16.572,40.261,25S33.428,40.261,25,40.261z"/>
<path id="XMLID_31_" class="st1" d="M47.848,20.763l-0.943-3.518c-0.066-0.248-0.241-0.436-0.432-0.466l-3.869-0.602
	c-0.607-1.21-1.336-2.347-2.169-3.399l1.091-3.765c0.054-0.186-0.043-0.424-0.24-0.589l-2.79-2.341
	c-0.197-0.165-0.448-0.219-0.621-0.134l-3.51,1.724c-1.67-0.904-3.484-1.575-5.401-1.966l-1.58-3.576
	c-0.078-0.177-0.305-0.297-0.562-0.297h-3.642c-0.257,0-0.484,0.12-0.562,0.297l-1.58,3.576c-1.339,0.274-2.628,0.686-3.853,1.217
	L13.835,4.9c-0.166-0.1-0.421-0.068-0.631,0.079l-2.983,2.089c-0.21,0.147-0.327,0.376-0.29,0.566l0.759,3.847
	c-0.923,0.977-1.749,2.046-2.458,3.196l-3.905,0.262c-0.193,0.013-0.384,0.185-0.471,0.426l-1.246,3.423
	c-0.088,0.241-0.053,0.496,0.087,0.63l2.823,2.712C5.382,23.067,5.308,24.025,5.308,25c0,0.39,0.014,0.776,0.037,1.16l-3.051,2.457
	c-0.151,0.121-0.208,0.372-0.142,0.62l0.943,3.518c0.066,0.248,0.241,0.436,0.432,0.466l3.869,0.602
	c0.607,1.21,1.336,2.347,2.169,3.399l-1.091,3.765c-0.054,0.186,0.043,0.424,0.24,0.589l2.79,2.341
	c0.197,0.165,0.448,0.219,0.621,0.134l3.51-1.724c1.67,0.904,3.484,1.575,5.401,1.966l1.58,3.576
	c0.078,0.177,0.305,0.297,0.562,0.297h3.642c0.257,0,0.484-0.12,0.562-0.297l1.58-3.576c1.339-0.274,2.628-0.686,3.853-1.217
	l3.348,2.024c0.166,0.1,0.421,0.068,0.631-0.079l2.983-2.089c0.21-0.147,0.327-0.376,0.29-0.566l-0.759-3.847
	c0.923-0.977,1.749-2.046,2.459-3.196l3.905-0.262c0.193-0.013,0.384-0.185,0.471-0.427l1.246-3.422
	c0.088-0.241,0.053-0.496-0.087-0.63l-2.823-2.712c0.137-0.937,0.211-1.895,0.211-2.871c0-0.39-0.014-0.776-0.037-1.16l3.051-2.457
	C47.857,21.262,47.914,21.011,47.848,20.763z M25,40.261c-8.428,0-15.261-6.833-15.261-15.261S16.572,9.739,25,9.739
	S40.261,16.572,40.261,25S33.428,40.261,25,40.261z"/>
<g id="XMLID_5_">
	<path id="XMLID_35_" class="st2" d="M20.876,28.162c-0.361,0.599-0.803,1.038-1.328,1.319c-0.524,0.28-1.17,0.421-1.936,0.421
		c-2.605,0-3.907-1.621-3.907-4.864c0-1.66,0.33-2.885,0.99-3.677c0.661-0.792,1.613-1.188,2.856-1.188
		c0.822,0,1.493,0.154,2.011,0.462s0.914,0.711,1.185,1.211l-1.331,1.146c-0.195-0.324-0.373-0.558-0.535-0.701
		c-0.162-0.144-0.346-0.252-0.553-0.324c-0.207-0.072-0.454-0.108-0.741-0.108c-0.689,0-1.214,0.244-1.574,0.732
		c-0.36,0.488-0.541,1.303-0.541,2.446c0,1.066,0.169,1.862,0.508,2.388c0.338,0.526,0.878,0.789,1.619,0.789
		c0.499,0,0.886-0.105,1.164-0.316c0.277-0.212,0.529-0.493,0.756-0.844L20.876,28.162z"/>
	<path id="XMLID_37_" class="st2" d="M21.387,29.707l2.783-9.337h2.23l2.789,9.337h-1.756l-0.56-1.896h-3.239l-0.547,1.896H21.387z
		 M24.122,26.145h2.266l-1.13-3.858L24.122,26.145z"/>
	<path id="XMLID_40_" class="st2" d="M36.403,23.5c0,1.125-0.238,1.958-0.715,2.503c-0.476,0.543-1.248,0.815-2.318,0.815h-1.397
		v2.888h-1.714V20.37h3.16c0.952,0,1.688,0.246,2.206,0.739C36.144,21.601,36.403,22.398,36.403,23.5z M34.635,23.514
		c0-0.526-0.131-0.906-0.393-1.14c-0.261-0.233-0.731-0.351-1.412-0.351h-0.857v3.137h0.699c0.628,0,1.062-0.048,1.304-0.145
		c0.24-0.097,0.411-0.26,0.51-0.489C34.585,24.296,34.635,23.959,34.635,23.514z"/>
</g>
<g id="XMLID_34_">
</g>
<g id="XMLID_43_">
</g>
<g id="XMLID_44_">
</g>
<g id="XMLID_45_">
</g>
<g id="XMLID_46_">
</g>
<g id="XMLID_47_">
</g>
</svg>
