<?xml version="1.0" encoding="utf-8"?>
<!-- Generator: Adobe Illustrator 19.0.0, SVG Export Plug-In . SVG Version: 6.00 Build 0)  -->
<svg version="1.1" id="Layer_1" xmlns="http://www.w3.org/2000/svg" xmlns:xlink="http://www.w3.org/1999/xlink" x="0px" y="0px"
	 width="50px" height="50px" viewBox="0 0 50 50" style="enable-background:new 0 0 50 50;" xml:space="preserve">
<style type="text/css">
	.st0{fill:none;stroke:#2C4E70;stroke-width:1.3;stroke-linecap:round;stroke-miterlimit:10;}
	.st1{opacity:0.1;}
	.st2{fill:none;stroke:#000000;stroke-width:1.3;stroke-linecap:round;stroke-miterlimit:10;}
</style>
<g id="XMLID_1_">
	<path id="XMLID_4_" class="st0" d="M19.17,10.074c0-4.972-4.03-9.002-9.002-9.002s-9.002,4.03-9.002,9.002s4.03,9.002,9.002,9.002"
		/>
	<path id="XMLID_2_" class="st0" d="M30.83,10.074c0-4.972,4.03-9.002,9.002-9.002s9.002,4.03,9.002,9.002s-4.03,9.002-9.002,9.002"
		/>
	<path id="XMLID_7_" class="st0" d="M19.17,39.926c0,4.972-4.03,9.002-9.002,9.002s-9.002-4.03-9.002-9.002s4.03-9.002,9.002-9.002"
		/>
	<path id="XMLID_59_" class="st1" d="M33.018,25c-0.238-8.624,9.45-12.977,7.065-15.312C37.594,7.252,30.657,17.541,25,16.949
		c-5.657,0.591-12.594-9.697-15.083-7.261C7.532,12.023,17.22,16.376,16.982,25c0.238,8.624-9.45,12.977-7.065,15.312
		c2.489,2.436,9.425-7.853,15.083-7.261c5.657-0.591,12.594,9.697,15.083,7.261C42.468,37.977,32.78,33.624,33.018,25z"/>
	<path id="XMLID_11_" class="st2" d="M33.018,25c-0.238-8.624,9.45-12.977,7.065-15.312C37.594,7.252,30.657,17.541,25,16.949
		c-5.657,0.591-12.594-9.697-15.083-7.261C7.532,12.023,17.22,16.376,16.982,25c0.238,8.624-9.45,12.977-7.065,15.312
		c2.489,2.436,9.425-7.853,15.083-7.261c5.657-0.591,12.594,9.697,15.083,7.261C42.468,37.977,32.78,33.624,33.018,25z"/>
	<path id="XMLID_5_" class="st0" d="M30.83,39.926c0,4.972,4.03,9.002,9.002,9.002s9.002-4.03,9.002-9.002s-4.03-9.002-9.002-9.002"
		/>
</g>
<g id="XMLID_60_">
</g>
<g id="XMLID_61_">
</g>
<g id="XMLID_62_">
</g>
<g id="XMLID_63_">
</g>
<g id="XMLID_64_">
</g>
<g id="XMLID_65_">
</g>
</svg>
