<?xml version="1.0" encoding="utf-8"?>
<!-- Generator: Adobe Illustrator 19.0.0, SVG Export Plug-In . SVG Version: 6.00 Build 0)  -->
<svg version="1.1" id="Layer_1" xmlns="http://www.w3.org/2000/svg" xmlns:xlink="http://www.w3.org/1999/xlink" x="0px" y="0px"
	 width="50px" height="50px" viewBox="0 0 50 50" style="enable-background:new 0 0 50 50;" xml:space="preserve">
<style type="text/css">
	.st0{fill:none;stroke:#2C4E70;stroke-width:1.3;stroke-linecap:round;stroke-miterlimit:10;}
	.st1{fill:none;stroke:#2C4E70;stroke-width:1.3;stroke-linecap:round;stroke-miterlimit:10;stroke-dasharray:4.2677,4.2677;}
	.st2{opacity:0.1;}
	.st3{fill:none;stroke:#000000;stroke-width:3.7;stroke-linecap:round;stroke-miterlimit:10;}
	.st4{fill:none;stroke:#FFFFFF;stroke-width:2;stroke-linecap:round;stroke-miterlimit:10;}
</style>
<g id="XMLID_1_">
	<g id="XMLID_4_">
		<g id="XMLID_36_">
			<path id="XMLID_39_" class="st0" d="M19.17,10.074c0-0.682-0.076-1.347-0.22-1.986"/>
			<path id="XMLID_38_" class="st1" d="M17.073,4.298c-1.651-1.972-4.131-3.226-6.905-3.226c-4.972,0-9.002,4.03-9.002,9.002
				c0,3.538,2.041,6.6,5.011,8.071"/>
			<path id="XMLID_37_" class="st0" d="M8.182,18.856c0.639,0.144,1.304,0.22,1.986,0.22"/>
		</g>
	</g>
	<g id="XMLID_2_">
		<g id="XMLID_31_">
			<path id="XMLID_34_" class="st0" d="M30.83,10.074c0-0.682,0.076-1.347,0.22-1.986"/>
			<path id="XMLID_33_" class="st1" d="M32.927,4.298c1.651-1.972,4.131-3.226,6.905-3.226c4.972,0,9.002,4.03,9.002,9.002
				c0,3.538-2.041,6.6-5.011,8.071"/>
			<path id="XMLID_32_" class="st0" d="M41.818,18.856c-0.639,0.144-1.304,0.22-1.986,0.22"/>
		</g>
	</g>
	<g id="XMLID_7_">
		<g id="XMLID_26_">
			<path id="XMLID_29_" class="st0" d="M19.17,39.926c0,0.682-0.076,1.347-0.22,1.986"/>
			<path id="XMLID_28_" class="st1" d="M17.073,45.702c-1.651,1.972-4.131,3.226-6.905,3.226c-4.972,0-9.002-4.03-9.002-9.002
				c0-3.538,2.041-6.6,5.011-8.071"/>
			<path id="XMLID_27_" class="st0" d="M8.182,31.144c0.639-0.144,1.304-0.22,1.986-0.22"/>
		</g>
	</g>
	<g id="XMLID_59_" class="st2">
		<path id="XMLID_17_" d="M33.018,25c-0.238-8.624,9.45-12.977,7.065-15.312C37.594,7.252,30.657,17.541,25,16.949
			c-5.657,0.591-12.594-9.697-15.083-7.261C7.532,12.023,17.22,16.376,16.982,25c0.238,8.624-9.45,12.977-7.065,15.312
			c2.489,2.436,9.425-7.853,15.083-7.261c5.657-0.591,12.594,9.697,15.083,7.261C42.468,37.977,32.78,33.624,33.018,25z"/>
	</g>
	<g id="XMLID_11_">
		<path id="XMLID_18_" class="st3" d="M32.63,25c-0.226-8.206,8.992-12.348,6.722-14.57C36.984,8.112,30.383,17.902,25,17.339
			c-5.383,0.563-11.984-9.227-14.352-6.909c-2.27,2.221,6.949,6.364,6.722,14.57c0.226,8.206-8.992,12.348-6.722,14.57
			c2.368,2.318,8.969-7.472,14.352-6.909c5.383-0.563,11.984,9.227,14.352,6.909C41.622,37.348,32.403,33.206,32.63,25z"/>
		<path id="XMLID_16_" class="st4" d="M32.63,25c-0.226-8.206,8.992-12.348,6.722-14.57C36.984,8.112,30.383,17.902,25,17.339
			c-5.383,0.563-11.984-9.227-14.352-6.909c-2.27,2.221,6.949,6.364,6.722,14.57c0.226,8.206-8.992,12.348-6.722,14.57
			c2.368,2.318,8.969-7.472,14.352-6.909c5.383-0.563,11.984,9.227,14.352,6.909C41.622,37.348,32.403,33.206,32.63,25z"/>
	</g>
	<g id="XMLID_5_">
		<g id="XMLID_20_">
			<path id="XMLID_24_" class="st0" d="M30.83,39.926c0,0.682,0.076,1.347,0.22,1.986"/>
			<path id="XMLID_23_" class="st1" d="M32.927,45.702c1.651,1.972,4.131,3.226,6.905,3.226c4.972,0,9.002-4.03,9.002-9.002
				c0-3.538-2.041-6.6-5.011-8.071"/>
			<path id="XMLID_21_" class="st0" d="M41.818,31.144c-0.639-0.144-1.304-0.22-1.986-0.22"/>
		</g>
	</g>
</g>
<g id="XMLID_3_">
</g>
<g id="XMLID_6_">
</g>
<g id="XMLID_8_">
</g>
<g id="XMLID_9_">
</g>
<g id="XMLID_10_">
</g>
<g id="XMLID_12_">
</g>
</svg>
