<?xml version="1.0" encoding="utf-8"?>
<!-- Generator: Adobe Illustrator 19.0.0, SVG Export Plug-In . SVG Version: 6.00 Build 0)  -->
<svg version="1.1" id="Layer_1" xmlns="http://www.w3.org/2000/svg" xmlns:xlink="http://www.w3.org/1999/xlink" x="0px" y="0px"
	 width="50px" height="50px" viewBox="0 0 50 50" style="enable-background:new 0 0 50 50;" xml:space="preserve">
<style type="text/css">
	.st0{fill:#6E8484;}
</style>
<g id="XMLID_3_">
	<ellipse id="XMLID_1_" cx="25" cy="18.576" rx="6.972" ry="6.999"/>
	<path id="XMLID_2_" d="M35.732,40.973c0,0-1.876,2.592-10.732,2.592s-10.732-2.592-10.732-2.592v-5.355
		c0-5.359,3.76-9.703,8.399-9.703c0,0,1.363,0.283,2.333,0.283s2.333-0.283,2.333-0.283c4.639,0,8.399,4.344,8.399,9.703V40.973z"/>
	<path id="XMLID_5_" class="st0" d="M15.724,19.485c-0.029-0.299-0.045-0.602-0.045-0.909c0-2.83,1.263-5.366,3.247-7.083
		c-0.839-2.92-3.515-5.058-6.694-5.058c-3.85,0-6.972,3.134-6.972,6.999c0,3.865,3.121,6.999,6.972,6.999
		C13.506,20.433,14.696,20.084,15.724,19.485z"/>
	<path id="XMLID_6_" class="st0" d="M11.918,35.618c0-4.782,2.499-8.911,6.102-10.86c-0.955-1.085-1.66-2.394-2.035-3.835
		c-0.463-0.091-0.936-0.149-1.421-0.149c0,0-1.363,0.283-2.333,0.283c-0.97,0-2.333-0.283-2.333-0.283
		c-4.638,0-8.399,4.344-8.399,9.703v5.355c0,0,1.843,2.524,10.418,2.586V35.618z"/>
	<path id="XMLID_8_" class="st0" d="M37.768,7.33c-2.925,0-5.426,1.811-6.461,4.376c1.848,1.711,3.014,4.154,3.014,6.87
		c0,0.593-0.056,1.172-0.162,1.734c1.054,0.642,2.286,1.019,3.608,1.019c3.85,0,6.972-3.134,6.972-6.999
		C44.74,10.464,41.619,7.33,37.768,7.33z"/>
	<path id="XMLID_9_" class="st0" d="M40.101,21.668c0,0-1.363,0.283-2.333,0.283c-0.97,0-2.333-0.283-2.333-0.283
		c-0.589,0-1.164,0.071-1.719,0.205c-0.405,1.067-0.996,2.043-1.737,2.885c3.604,1.95,6.102,6.078,6.102,10.86v3.695
		C46.657,39.25,48.5,36.726,48.5,36.726v-5.355C48.5,26.012,44.74,21.668,40.101,21.668z"/>
</g>
<g id="XMLID_4_">
</g>
<g id="XMLID_7_">
</g>
<g id="XMLID_10_">
</g>
<g id="XMLID_11_">
</g>
<g id="XMLID_12_">
</g>
<g id="XMLID_13_">
</g>
</svg>
