<?xml version="1.0" encoding="utf-8"?>
<!-- Generator: Adobe Illustrator 19.0.0, SVG Export Plug-In . SVG Version: 6.00 Build 0)  -->
<svg version="1.1" id="Layer_1" xmlns="http://www.w3.org/2000/svg" xmlns:xlink="http://www.w3.org/1999/xlink" x="0px" y="0px"
	 width="50px" height="50px" viewBox="0 0 50 50" style="enable-background:new 0 0 50 50;" xml:space="preserve">
<style type="text/css">
	.st0{fill:#6E8484;}
	.st1{fill:none;stroke:#000000;stroke-width:1.3;stroke-miterlimit:10;}
</style>
<g id="XMLID_2_">
	<path id="XMLID_7_" d="M37.235,11.743L32.72,7.216c-0.209-0.21-0.549-0.208-0.756,0.005l-3.241,3.329
		c-0.205,0.21-0.2,0.547,0.011,0.751l3.276,3.172c0.666,0.576,0.7,1.597,0.074,2.217L9.645,38.922
		c-0.189,0.187-0.21,0.486-0.049,0.698l0,0c0.602,0.79,1.307,1.496,2.097,2.098l0.06,0.046c0.213,0.162,0.513,0.141,0.7-0.05
		l1.64-1.67l20.478-20.857c0.619-0.63,1.643-0.598,2.221,0.069l0.819,0.819c0.037,0.037,0.079,0.068,0.125,0.093l7.267,3.888
		c0.469,0.251,0.974-0.267,0.712-0.729l-4.026-7.115c-0.024-0.042-0.053-0.081-0.088-0.115l-2.152-2.139c0,0,0.44-0.44,0.664-0.664
		c0.224-0.224-1.961-2.469-2.215-2.215S37.235,11.743,37.235,11.743z"/>
	<g id="XMLID_3_">
		<path id="XMLID_11_" class="st0" d="M12.56,19.16c0.576-0.666,1.597-0.7,2.217-0.074l5.384,5.434
			c0.206,0.208,0.542,0.21,0.75,0.003l1.825-1.808c0.21-0.208,0.209-0.548-0.002-0.755l-5.461-5.362
			c-0.63-0.619-0.598-1.643,0.069-2.221l5.669-4.016c0.248-0.176,0.298-0.524,0.109-0.762l-2.876-3.636
			c-0.18-0.228-0.51-0.268-0.74-0.091l-7.545,5.815c-0.766,0.59-1.452,1.277-2.042,2.042l-5.815,7.545
			c-0.177,0.23-0.137,0.56,0.091,0.74L7.83,24.89c0.239,0.189,0.587,0.138,0.762-0.11L12.56,19.16z"/>
		<path id="XMLID_12_" class="st0" d="M28.644,28.506l-1.89,1.925c-0.203,0.207-0.203,0.539,0.002,0.745l10.243,10.338
			c0.192,0.194,0.506,0.217,0.718,0.044c0.884-0.72,1.68-1.543,2.372-2.451l0.047-0.062l-2.004-1.968l-8.737-8.578
			C29.185,28.294,28.849,28.297,28.644,28.506z"/>
	</g>
</g>
<path id="XMLID_1_" class="st1" d="M30.208,1.083H6.083c-2.761,0-5,2.239-5,5v37.833c0,2.761,2.239,5,5,5h37.833
	c2.761,0,5-2.239,5-5V19.792C48.917,9.459,40.541,1.083,30.208,1.083z"/>
<g id="XMLID_4_">
</g>
<g id="XMLID_5_">
</g>
<g id="XMLID_6_">
</g>
<g id="XMLID_8_">
</g>
<g id="XMLID_9_">
</g>
<g id="XMLID_10_">
</g>
</svg>
